<?xml version="1.0" encoding="iso-8859-1"?>
<!-- Generator: Adobe Illustrator 19.0.0, SVG Export Plug-In . SVG Version: 6.00 Build 0)  -->
<svg version="1.1" id="Capa_1" xmlns="http://www.w3.org/2000/svg" xmlns:xlink="http://www.w3.org/1999/xlink" x="0px" y="0px"
	 viewBox="0 0 512 512" style="enable-background:new 0 0 512 512;" xml:space="preserve">
<path style="fill:#4CAF50;" d="M439.669,481.888L238.293,375.264c-5.248-2.784-11.648-2.4-16.608,0.96L67.701,482.848
	c-5.76,4-8.256,11.264-6.144,17.952c2.048,6.624,8.256,11.2,15.232,11.2h355.36c7.328,0,13.76-4.992,15.52-12.16
	C449.461,492.704,446.133,485.312,439.669,481.888z"/>
<path style="fill:#2196F3;" d="M395.637,203.232c-2.112-6.688-8.288-11.232-15.296-11.232H84.565
	c-7.488,0-13.984,5.216-15.616,12.544L15.157,446.56c-1.408,6.432,1.248,13.056,6.688,16.736c2.688,1.824,5.824,2.72,8.928,2.72
	c3.2,0,6.368-0.928,9.12-2.848l349.536-242.016C395.221,217.184,397.685,209.92,395.637,203.232z"/>
<path style="fill:#4CAF50;" d="M459.701,238.272c-1.152-5.216-4.832-9.472-9.792-11.424c-4.992-1.952-10.592-1.28-14.944,1.728
	L280.949,335.2c-4.608,3.2-7.2,8.544-6.848,14.08c0.32,5.6,3.552,10.592,8.48,13.184l201.344,106.624
	c2.368,1.248,4.928,1.888,7.488,1.888c3.424,0,6.848-1.088,9.696-3.296c4.96-3.776,7.296-10.08,5.952-16.192L459.701,238.272z"/>
<path style="fill:#FFC107;" d="M116.565,0c-61.76,0-112,50.24-112,112c0,57.472,89.856,159.264,100.096,170.688
	c3.04,3.36,7.36,5.312,11.904,5.312s8.864-1.952,11.904-5.312C138.709,271.264,228.565,169.472,228.565,112
	C228.565,50.24,178.325,0,116.565,0z"/>
<circle style="fill:#FAFAFA;" cx="116.565" cy="112" r="48"/>
<g>
</g>
<g>
</g>
<g>
</g>
<g>
</g>
<g>
</g>
<g>
</g>
<g>
</g>
<g>
</g>
<g>
</g>
<g>
</g>
<g>
</g>
<g>
</g>
<g>
</g>
<g>
</g>
<g>
</g>
</svg>
